# xmcd
#
# Track frame offsets: 
#        150
#        14508
#        29443
#        56805
#        69628
#        90143
#        107572
#        129612
#        147978
#        163841
#        174707
#        189950
#        209852
#        229083
#        250271
#        264700
#        282137
#
# Disc length: 3966 seconds
#
# Revision: 0
# Processed by: cddbd v1.5.1PL0 Copyright (c) Steve Scherf et al.
# Submitted via: ExactAudioCopy v0.95a5
#
DISCID=fd0f7c11
DTITLE=Various Artist - Texas Music TexMix 2005
DYEAR=2005
DGENRE=Country
TTITLE0=Broken Heart - Reckless Kelly
TTITLE1=My Girl Friday - Morrison-Williams
TTITLE2=Just Holding You - Luke Olson
TTITLE3=The Good Life - Trent Willmon
TTITLE4=60 Acres - James McMurtry and the Heartless Bastards
TTITLE5=Nowhere, USA - Patrick Fleming
TTITLE6=Cowboy Way - Pauline Reese
TTITLE7=C'Mon Baby - Bob Schneider
TTITLE8=Somebody Take Me Home - Randy Rogers Band
TTITLE9=Fame - Billy Joe Shaver
TTITLE10=Honky Tonk Heart - Ed Burleson
TTITLE11=Why You Been Gone So Long - Eleven Hundred Springs
TTITLE12=45 South - Ray O'Hara
TTITLE13=Should've Learned By Now - Roger Creager
TTITLE14=Let Me Be - Deryl Dodd
TTITLE15=Big City Blues - Charlie Robison
TTITLE16=The Whole World's Gone Crazy - Western Soul
EXTD=
EXTT0=
EXTT1=
EXTT2=
EXTT3=
EXTT4=
EXTT5=
EXTT6=
EXTT7=
EXTT8=
EXTT9=
EXTT10=
EXTT11=
EXTT12=
EXTT13=
EXTT14=
EXTT15=
EXTT16=
PLAYORDER=
